{"title":"V FOR VENDETTA.DEWSTRR","uid":4792855,"size":1460921938,"categoryP":"video","categoryS":"movies","magnet":"?xt=urn:btih:0c2f3affe501d747ab71aed70241eb637e131b58&amp;dn=V+FOR+VENDETTA.DEWSTRR&amp;tr=udp%3A%2F%2Ftracker.openbittorrent.com%3A80&amp;tr=udp%3A%2F%2Fopen.demonii.com%3A1337&amp;tr=udp%3A%2F%2Ftracker.coppersurfer.tk%3A6969&amp;tr=udp%3A%2F%2Fexodus.desync.com%3A6969","seeders":0,"leechers":1,"uploader":"dewstrr505","files":17,"time":1237772253,"description":"V FOR VENDETTA DVDRIP/AVI  \n\nACTION  SCI-FI  THRILLER\n\nRemember, remember the 5th of November, the gun powder treason and plot. I know of no reason why the gun powder treason should ever be forgot.\n\na man [V-Hugo Weaving] survives the biological war weapon testing by the government on the people and becomes somewhat of a superhero who decides to blow up parliament like Guy Fawkes of the XVII century tried to do but was caught and hanged, first he storms the national tv broadcasting station to get his message out and there he meets Evey [Natalie Portman] who first decides to help but later betrays him and then after she learns the story of what made him what he is she again decides to help with his mission to blow up parliament in futuristic fascist Great Britain\n &lt;a href=&quot;\nhttp://www.imdb.com/title/tt0434409/&quot; rel=&quot;nofollow&quot; target=&quot;_NEW&quot;&gt;\nhttp://www.imdb.com/title/tt0434409/&lt;/a&gt; \n\nVideo\nFormat :     MPEG-4 Visual\nFormat settings, BVOP :     Yes\nFormat settings, QPel :     No\nFormat settings, GMC :     No warppoints\nFormat settings, Matrix :     Default\nMuxing mode :     Packed bitstream\nCodec ID :     DX50\nCodec ID/Hint :     DivX 5\nDuration :     1h 58mn\nBit rate :     1 501 Kbps\nWidth :     640 pixels\nHeight :     480 pixels\nDisplay aspect ratio :     4/3\nFrame rate :     25.000 fps\nResolution :     24 bits\nColorimetry :     4:2:0\nScan type :     Progressive\nBits/(Pixel*Frame) :     0.195\nStream size :     1.25 GiB (92%)\nTitle :     Video\nWriting library :      DivX 6.8.2 (UTC 2008-05-17)\n\nAudio\nFormat :     AC-3\nFormat/Info :     Audio Coding 3\nCodec ID :     2000\nDuration :     1h 58mn\nBit rate mode :     Constant\nBit rate :     128 Kbps\nChannel(s) :     2 channels\nChannel positions :     L R\nSampling rate :     48.0 KHz\nStream size :     109 MiB (8%)\nAlignment :     Split accross interleaves\nInterleave, duration :     40 ms (1.00 video frame)\nInterleave, preload duration :     500 ms\n\nGeneral\nComplete name : VFV.sfv\nFile size :     2.24 KiB\n\nGeneral\nComplete name : V FOR\nFile size :     47.0 Bytes\n[IMG]http://i203.photobucket.com/albums/aa38/476352oop/MOVIES/2-27-200911-41-26PM.jpg[/IMG]\n[IMG]http://i203.photobucket.com/albums/aa38/476352oop/MOVIES/2-27-200911-48-12PM.jpg[/IMG]\n[IMG]http://i203.photobucket.com/albums/aa38/476352oop/MOVIES/2-27-200911-52-03PM.jpg[/IMG]\n[IMG]http://i203.photobucket.com/albums/aa38/476352oop/MOVIES/2-27-200911-52-25PM.jpg[/IMG]\n[IMG]http://i203.photobucket.com/albums/aa38/476352oop/MOVIES/2-27-200911-54-47PM.jpg[/IMG]\n[IMG]http://i203.photobucket.com/albums/aa38/476352oop/MOVIES/2-27-200911-55-08PM.jpg[/IMG]\n[IMG]http://i203.photobucket.com/albums/aa38/476352oop/MOVIES/2-28-200912-02-08AM.jpg[/IMG]\n[IMG]http://i203.photobucket.com/albums/aa38/476352oop/MOVIES/2-28-200912-03-00AM.jpg[/IMG]\n[IMG]http://i203.photobucket.com/albums/aa38/476352oop/MOVIES/2-28-200912-05-47AM.jpg[/IMG]\n[IMG]http://i203.photobucket.com/albums/aa38/476352oop/MOVIES/2-28-200912-06-54AM.jpg[/IMG]\n[IMG]http://i203.photobucket.com/albums/aa38/476352oop/MOVIES/2-28-200912-07-58AM.jpg[/IMG]\n[IMG]http://i203.photobucket.com/albums/aa38/476352oop/MOVIES/2-28-200912-09-58AM.jpg[/IMG]\n[IMG]http://i203.photobucket.com/albums/aa38/476352oop/MOVIES/2-28-200912-14-13AM.jpg[/IMG]\nburned with windows [with a couple of other movies on a disk] and played on my philips divx ultra certified dvd player\nbe sure to set the correct aspect ratio for full picture","torrent":{"xt":"urn:btih:0c2f3affe501d747ab71aed70241eb637e131b58","amp;dn":"V+FOR+VENDETTA.DEWSTRR","amp;tr":["udp%3A%2F%2Ftracker.openbittorrent.com%3A80","udp%3A%2F%2Fopen.demonii.com%3A1337","udp%3A%2F%2Ftracker.coppersurfer.tk%3A6969","udp%3A%2F%2Fexodus.desync.com%3A6969"],"infoHash":"0c2f3affe501d747ab71aed70241eb637e131b58","infoHashBuffer":{"type":"Buffer","data":[12,47,58,255,229,1,215,71,171,113,174,215,2,65,235,99,126,19,27,88]},"announce":[],"urlList":[]}}